<svg width="252" height="54" viewBox="0 0 252 54" fill="none" xmlns="http://www.w3.org/2000/svg">
<path d="M26.6341 26.8868V53.6167H18.4427V49.9761C17.6123 51.1577 16.4786 52.1157 15.0415 52.8502C13.6364 53.5528 12.0716 53.9041 10.3471 53.9041C8.30319 53.9041 6.49884 53.457 4.93401 52.5628C3.36918 51.6367 2.15564 50.3114 1.29338 48.5869C0.431127 46.8624 0 44.8345 0 42.5032V26.8868H8.14351V41.4014C8.14351 43.1898 8.60658 44.579 9.5327 45.569C10.4588 46.559 11.7043 47.054 13.2691 47.054C14.8659 47.054 16.1273 46.559 17.0535 45.569C17.9796 44.579 18.4427 43.1898 18.4427 41.4014V26.8868H26.6341Z" fill="#3F3D56"/>
<path d="M46.8888 26.5994C50.0185 26.5994 52.5094 27.6213 54.3617 29.6652C56.2459 31.6771 57.188 34.4555 57.188 38.0003V53.6167H49.0445V39.1021C49.0445 37.3137 48.5814 35.9245 47.6553 34.9345C46.7291 33.9445 45.4837 33.4495 43.9188 33.4495C42.354 33.4495 41.1085 33.9445 40.1824 34.9345C39.2563 35.9245 38.7932 37.3137 38.7932 39.1021V53.6167H30.6018V26.8868H38.7932V30.4316C39.6235 29.25 40.7413 28.3239 42.1464 27.6533C43.5516 26.9507 45.1324 26.5994 46.8888 26.5994Z" fill="#3F3D56"/>
<path d="M75.8619 46.6707V53.6167H71.6944C68.7244 53.6167 66.409 52.8981 64.7484 51.461C63.0878 49.992 62.2575 47.6128 62.2575 44.3235V33.689H59.0001V26.8868H62.2575V20.372H70.4489V26.8868H75.814V33.689H70.4489V44.4193C70.4489 45.2177 70.6405 45.7925 71.0237 46.1438C71.4069 46.4951 72.0456 46.6707 72.9398 46.6707H75.8619Z" fill="#3F3D56"/>
<path d="M87.179 31.3418C88.1371 29.8728 89.3346 28.7231 90.7717 27.8928C92.2088 27.0305 93.8056 26.5994 95.562 26.5994V35.2698H93.3106C91.2667 35.2698 89.7338 35.7169 88.7119 36.6111C87.69 37.4734 87.179 39.0063 87.179 41.2098V53.6167H78.9876V26.8868H87.179V31.3418Z" fill="#3F3D56"/>
<path d="M96.4116 40.2038C96.4116 37.4574 96.9225 35.0463 97.9445 32.9705C98.9983 30.8947 100.419 29.2979 102.208 28.1802C103.996 27.0624 105.992 26.5036 108.196 26.5036C110.08 26.5036 111.725 26.8868 113.13 27.6533C114.567 28.4197 115.669 29.4257 116.435 30.6711V26.8868H124.626V53.6167H116.435V49.8323C115.637 51.0778 114.519 52.0838 113.082 52.8502C111.677 53.6167 110.032 53.9999 108.148 53.9999C105.976 53.9999 103.996 53.441 102.208 52.3233C100.419 51.1736 98.9983 49.5609 97.9445 47.4851C96.9225 45.3774 96.4116 42.9503 96.4116 40.2038ZM116.435 40.2517C116.435 38.2079 115.86 36.5951 114.711 35.4135C113.593 34.2319 112.22 33.6411 110.591 33.6411C108.962 33.6411 107.573 34.2319 106.423 35.4135C105.306 36.5632 104.747 38.16 104.747 40.2038C104.747 42.2477 105.306 43.8764 106.423 45.0899C107.573 46.2716 108.962 46.8624 110.591 46.8624C112.22 46.8624 113.593 46.2716 114.711 45.0899C115.86 43.9083 116.435 42.2956 116.435 40.2517Z" fill="#3F3D56"/>
<path d="M139.51 53.9999C137.179 53.9999 135.103 53.6007 133.283 52.8023C131.463 52.0039 130.026 50.9182 128.972 49.5449C127.918 48.1398 127.327 46.5749 127.199 44.8504H135.295C135.391 45.7766 135.822 46.527 136.588 47.1019C137.355 47.6767 138.297 47.9641 139.415 47.9641C140.437 47.9641 141.219 47.7725 141.762 47.3893C142.337 46.9741 142.624 46.4472 142.624 45.8085C142.624 45.042 142.225 44.4832 141.427 44.1319C140.628 43.7487 139.335 43.3335 137.546 42.8864C135.63 42.4393 134.034 41.9763 132.756 41.4972C131.479 40.9863 130.377 40.2038 129.451 39.15C128.525 38.0642 128.062 36.6111 128.062 34.7908C128.062 33.2579 128.477 31.8687 129.307 30.6232C130.169 29.3458 131.415 28.3399 133.044 27.6053C134.704 26.8708 136.668 26.5036 138.936 26.5036C142.289 26.5036 144.923 27.3339 146.84 28.9945C148.788 30.6552 149.905 32.8587 150.193 35.6052H142.624C142.496 34.679 142.081 33.9445 141.379 33.4016C140.708 32.8587 139.814 32.5873 138.696 32.5873C137.738 32.5873 137.003 32.7789 136.493 33.1621C135.982 33.5134 135.726 34.0084 135.726 34.6471C135.726 35.4135 136.125 35.9884 136.924 36.3716C137.754 36.7548 139.031 37.138 140.756 37.5213C142.736 38.0322 144.349 38.5432 145.594 39.0542C146.84 39.5332 147.925 40.3316 148.852 41.4493C149.81 42.5351 150.305 44.0041 150.337 45.8564C150.337 47.4212 149.889 48.8264 148.995 50.0719C148.133 51.2854 146.872 52.2435 145.211 52.946C143.582 53.6486 141.682 53.9999 139.51 53.9999Z" fill="#3F3D56"/>
<path d="M169.384 26.5994C172.449 26.5994 174.908 27.6213 176.761 29.6652C178.613 31.6771 179.539 34.4555 179.539 38.0003V53.6167H171.395V39.1021C171.395 37.3137 170.932 35.9245 170.006 34.9345C169.08 33.9445 167.835 33.4495 166.27 33.4495C164.705 33.4495 163.46 33.9445 162.533 34.9345C161.607 35.9245 161.144 37.3137 161.144 39.1021V53.6167H152.953V18.1685H161.144V30.4795C161.975 29.2979 163.108 28.3558 164.545 27.6533C165.982 26.9507 167.595 26.5994 169.384 26.5994Z" fill="#3F3D56"/>
<path d="M208.991 39.8206C208.991 40.5871 208.943 41.3854 208.847 42.2158H190.309C190.437 43.8764 190.964 45.1538 191.89 46.048C192.848 46.9103 194.013 47.3414 195.387 47.3414C197.431 47.3414 198.852 46.4791 199.65 44.7546H208.368C207.921 46.5111 207.107 48.0919 205.925 49.497C204.776 50.9022 203.323 52.0039 201.566 52.8023C199.81 53.6007 197.846 53.9999 195.674 53.9999C193.055 53.9999 190.724 53.441 188.68 52.3233C186.636 51.2056 185.04 49.6088 183.89 47.533C182.74 45.4572 182.165 43.0301 182.165 40.2517C182.165 37.4734 182.724 35.0463 183.842 32.9705C184.992 30.8947 186.588 29.2979 188.632 28.1802C190.676 27.0624 193.023 26.5036 195.674 26.5036C198.261 26.5036 200.56 27.0465 202.572 28.1323C204.584 29.2181 206.149 30.7669 207.267 32.7789C208.416 34.7908 208.991 37.1381 208.991 39.8206ZM200.608 37.665C200.608 36.2598 200.129 35.1421 199.171 34.3118C198.213 33.4815 197.015 33.0663 195.578 33.0663C194.205 33.0663 193.039 33.4655 192.081 34.2639C191.155 35.0623 190.58 36.196 190.357 37.665H200.608Z" fill="#3F3D56"/>
<path d="M211.205 40.2038C211.205 37.4574 211.716 35.0463 212.738 32.9705C213.792 30.8947 215.213 29.2979 217.001 28.1802C218.789 27.0624 220.785 26.5036 222.989 26.5036C224.745 26.5036 226.342 26.8708 227.779 27.6053C229.248 28.3399 230.398 29.3299 231.228 30.5753V18.1685H239.42V53.6167H231.228V49.7844C230.462 51.0619 229.36 52.0838 227.923 52.8502C226.518 53.6167 224.873 53.9999 222.989 53.9999C220.785 53.9999 218.789 53.441 217.001 52.3233C215.213 51.1736 213.792 49.5609 212.738 47.4851C211.716 45.3774 211.205 42.9503 211.205 40.2038ZM231.228 40.2517C231.228 38.2079 230.653 36.5951 229.504 35.4135C228.386 34.2319 227.013 33.6411 225.384 33.6411C223.755 33.6411 222.366 34.2319 221.217 35.4135C220.099 36.5632 219.54 38.16 219.54 40.2038C219.54 42.2477 220.099 43.8764 221.217 45.0899C222.366 46.2716 223.755 46.8624 225.384 46.8624C227.013 46.8624 228.386 46.2716 229.504 45.0899C230.653 43.9083 231.228 42.2956 231.228 40.2517Z" fill="#3F3D56"/>
<circle cx="247.083" cy="49.6445" r="4.15159" fill="url(#paint0_linear_394_21236)" fill-opacity="0.8"/>
<path d="M181.182 16.0734C176.332 18.8258 174.563 24.1448 174.563 24.1448C174.563 24.1448 180.657 25.0013 185.508 22.2489C190.358 19.4966 192.127 14.1776 192.127 14.1776C192.127 14.1776 186.032 13.321 181.182 16.0734Z" fill="#189146"/>
<path d="M170.02 10.7956C168.21 17.1512 171.139 23.1223 171.139 23.1223C171.139 23.1223 177.001 18.789 178.81 12.4334C180.62 6.07783 177.692 0.106714 177.692 0.106714C177.692 0.106714 171.83 4.44003 170.02 10.7956Z" fill="#189146"/>
<defs>
<linearGradient id="paint0_linear_394_21236" x1="246.316" y1="45.4929" x2="251.024" y2="46.9568" gradientUnits="userSpaceOnUse">
<stop stop-color="#FF833E"/>
<stop offset="1" stop-color="#F35B41"/>
</linearGradient>
</defs>
</svg>
